HIERARCHY
ROOT hip
{
  OFFSET 0 0 0
  CHANNELS 6 Xposition Yposition Zposition Zrotation Yrotation Xrotation
  JOINT abdomen
  {
    OFFSET 0 20.6881 -0.73152
    CHANNELS 3 Zrotation Xrotation Yrotation
    JOINT chest
    {
      OFFSET 0 11.7043 -0.48768
      CHANNELS 3 Zrotation Xrotation Yrotation
      JOINT neck
      {
        OFFSET 0 22.1894 -2.19456
        CHANNELS 3 Zrotation Xrotation Yrotation
        JOINT head
        {
          OFFSET -0.24384 7.07133 1.2192
          CHANNELS 3 Zrotation Xrotation Yrotation
          JOINT leftEye
          {
            OFFSET 4.14528 8.04674 8.04672
            CHANNELS 3 Zrotation Xrotation Yrotation
            End Site
            {
              OFFSET 1 0 0
            }
          }
          JOINT rightEye
          {
            OFFSET -3.6576 8.04674 8.04672
            CHANNELS 3 Zrotation Xrotation Yrotation
            End Site
            {
              OFFSET 1 0 0
            }
          }
        }
      }
      JOINT rCollar
      {
        OFFSET -2.68224 19.2634 -4.8768
        CHANNELS 3 Zrotation Xrotation Yrotation
        JOINT rShldr
        {
          OFFSET -8.77824 -1.95073 1.46304
          CHANNELS 3 Zrotation Xrotation Yrotation
          JOINT rForeArm
          {
            OFFSET -28.1742 -1.7115 0.48768
            CHANNELS 3 Zrotation Xrotation Yrotation
            JOINT rHand
            {
              OFFSET -22.5879 0.773209 7.07136
              CHANNELS 3 Zrotation Xrotation Yrotation
              JOINT rThumb1
              {
                OFFSET -1.2192 -0.487915 3.41376
                CHANNELS 3 Zrotation Xrotation Yrotation
                JOINT rThumb2
                {
                  OFFSET -3.37035 -0.52449 3.41376
                  CHANNELS 3 Zrotation Xrotation Yrotation
                  End Site
                  {
                    OFFSET -1.78271 -1.18214 1.43049
                  }
                }
              }
              JOINT rIndex1
              {
                OFFSET -7.75947 0.938293 5.60832
                CHANNELS 3 Zrotation Xrotation Yrotation
                JOINT rIndex2
                {
                  OFFSET -2.54057 -0.884171 1.56538
                  CHANNELS 3 Zrotation Xrotation Yrotation
                  End Site
                  {
                    OFFSET -1.62519 -0.234802 1.16502
                  }
                }
              }
              JOINT rMid1
              {
                OFFSET -8.24714 1.18213 3.41376
                CHANNELS 3 Zrotation Xrotation Yrotation
                JOINT rMid2
                {
                  OFFSET -3.10165 -0.590103 1.0647
                  CHANNELS 3 Zrotation Xrotation Yrotation
                  End Site
                  {
                    OFFSET -2.48547 -0.328903 0.83742
                  }
                }
              }
              JOINT rRing1
              {
                OFFSET -8.82822 0.546677 1.51678
                CHANNELS 3 Zrotation Xrotation Yrotation
                JOINT rRing2
                {
                  OFFSET -2.60934 -0.819778 -0.0198488
                  CHANNELS 3 Zrotation Xrotation Yrotation
                  End Site
                  {
                    OFFSET -2.33842 -0.294052 0.168128
                  }
                }
              }
              JOINT rPinky1
              {
                OFFSET -8.27202 -0.0477905 -0.4584
                CHANNELS 3 Zrotation Xrotation Yrotation
                JOINT rPinky2
                {
                  OFFSET -1.82734 -0.647385 -0.700984
                  CHANNELS 3 Zrotation Xrotation Yrotation
                  End Site
                  {
                    OFFSET -1.69225 -0.51767 -0.607171
                  }
                }
              }
            }
          }
        }
      }
      JOINT lCollar
      {
        OFFSET 2.68224 19.2634 -4.8768
        CHANNELS 3 Zrotation Xrotation Yrotation
        JOINT lShldr
        {
          OFFSET 8.77824 -1.95073 1.46304
          CHANNELS 3 Zrotation Xrotation Yrotation
          JOINT lForeArm
          {
            OFFSET 28.1742 -1.7115 0.48768
            CHANNELS 3 Zrotation Xrotation Yrotation
            JOINT lHand
            {
              OFFSET 22.5879 0.773209 7.07136
              CHANNELS 3 Zrotation Xrotation Yrotation
              JOINT lThumb1
              {
                OFFSET 1.2192 -0.487915 3.41376
                CHANNELS 3 Zrotation Xrotation Yrotation
                JOINT lThumb2
                {
                  OFFSET 3.37035 -0.52449 3.41376
                  CHANNELS 3 Zrotation Xrotation Yrotation
                  End Site
                  {
                    OFFSET 1.78271 -1.18214 1.43049
                  }
                }
              }
              JOINT lIndex1
              {
                OFFSET 7.75947 0.938293 5.60832
                CHANNELS 3 Zrotation Xrotation Yrotation
                JOINT lIndex2
                {
                  OFFSET 2.54057 -0.884171 1.56538
                  CHANNELS 3 Zrotation Xrotation Yrotation
                  End Site
                  {
                    OFFSET 1.62519 -0.234802 1.16502
                  }
                }
              }
              JOINT lMid1
              {
                OFFSET 8.24714 1.18213 3.41376
                CHANNELS 3 Zrotation Xrotation Yrotation
                JOINT lMid2
                {
                  OFFSET 3.10165 -0.590103 1.0647
                  CHANNELS 3 Zrotation Xrotation Yrotation
                  End Site
                  {
                    OFFSET 2.48547 -0.328903 0.83742
                  }
                }
              }
              JOINT lRing1
              {
                OFFSET 8.82822 0.546677 1.51678
                CHANNELS 3 Zrotation Xrotation Yrotation
                JOINT lRing2
                {
                  OFFSET 2.60934 -0.819778 -0.0198488
                  CHANNELS 3 Zrotation Xrotation Yrotation
                  End Site
                  {
                    OFFSET 2.33842 -0.294052 0.168128
                  }
                }
              }
              JOINT lPinky1
              {
                OFFSET 8.27202 -0.0477905 -0.4584
                CHANNELS 3 Zrotation Xrotation Yrotation
                JOINT lPinky2
                {
                  OFFSET 1.82734 -0.647385 -0.700984
                  CHANNELS 3 Zrotation Xrotation Yrotation
                  End Site
                  {
                    OFFSET 1.69225 -0.51767 -0.607171
                  }
                }
              }
            }
          }
        }
      }
    }
  }
  JOINT rButtock
  {
    OFFSET -8.77824 4.35084 1.2192
    CHANNELS 3 Zrotation Xrotation Yrotation
    JOINT rThigh
    {
      OFFSET 0 -1.70687 -2.19456
      CHANNELS 3 Zrotation Xrotation Yrotation
      JOINT rShin
      {
        OFFSET 0 -36.8199 0.73152
        CHANNELS 3 Zrotation Xrotation Yrotation
        JOINT rFoot
        {
          OFFSET 0.73152 -45.1104 -5.12064
          CHANNELS 3 Zrotation Xrotation Yrotation
          End Site
          {
            OFFSET -1.1221 -3.69964 12.103
          }
        }
      }
    }
  }
  JOINT lButtock
  {
    OFFSET 8.77824 4.35084 1.2192
    CHANNELS 3 Zrotation Xrotation Yrotation
    JOINT lThigh
    {
      OFFSET 0 -1.70687 -2.19456
      CHANNELS 3 Zrotation Xrotation Yrotation
      JOINT lShin
      {
        OFFSET 0 -36.8199 0.73152
        CHANNELS 3 Zrotation Xrotation Yrotation
        JOINT lFoot
        {
          OFFSET -0.73152 -45.1104 -5.12064
          CHANNELS 3 Zrotation Xrotation Yrotation
          End Site
          {
            OFFSET 1.1221 -3.69964 12.103
          }
        }
      }
    }
  }
}
MOTION
Frames:	8
Frame Time:	0.03333
0.0 0.0 0.0 0.0 0.0 0.0 0.0 0.0 0.0 0.0 0.0 0.0 0.0 0.0 0.0 0.0 0.0 0.0 0.0 0.0 0.0 0.0 0.0 0.0 0.0 0.0 0.0 0.0 0.0 0.0 0.0 0.0 0.0 0.0 0.0 0.0 0.0 0.0 0.0 0.0 0.0 0.0 0.0 0.0 0.0 0.0 0.0 0.0 0.0 0.0 0.0 0.0 0.0 0.0 0.0 0.0 0.0 0.0 0.0 0.0 0.0 0.0 0.0 0.0 0.0 0.0 0.0 0.0 0.0 0.0 0.0 0.0 0.0 0.0 0.0 0.0 0.0 0.0 0.0 0.0 0.0 0.0 0.0 0.0 0.0 0.0 0.0 0.0 0.0 0.0 0.0 0.0 0.0 0.0 0.0 0.0 0.0 0.0 0.0 0.0 0.0 0.0 0.0 0.0 0.0 0.0 0.0 0.0 0.0 0.0 0.0 0.0 0.0 0.0 0.0 0.0 0.0 0.0 0.0 0.0 0.0 0.0 0.0 0.0 0.0 0.0 0.0 0.0 0.0 0.0 0.0 0.0
0.10529999999999999 70.0372 3.8367999999999998 4.658969 33.589761 -5.502247 -11.100238 12.63358 -87.173007 5.930584 2.103384 92.889219 4.311088 27.056099 118.060423 -29.459388 19.685282 -149.791614 -0.001904 -0.0 0.002257 -0.001904 -0.0 0.002257 -158.334326 -28.28623 166.596201 -103.475856 -10.914534 -157.598306 3.794155 77.192385 -125.313834 156.644589 -35.727556 139.326974 -164.77271 -2.446322 89.593861 125.625756 -54.358605 87.063957 -121.286064 25.156808 102.413538 0.882604 11.180665 -5.543044 -169.596239 -34.743511 145.372333 -0.304132 9.528977 1.892456 -145.122132 1.130152 -179.483272 11.983449 35.762302 -4.945274 142.832789 88.11715 -101.979593 -177.69954 77.347017 -140.130628 157.128942 -15.741909 -164.278936 -123.974758 10.160062 -153.431255 -172.566224 -5.628946 -35.849477 151.328537 29.671783 -129.93129 179.355317 -16.85979 -89.362231 56.190223 -5.499808 -9.661565 -7.202293 -12.499815 3.499929 177.113833 -35.40348 -106.331841 160.982628 -7.624126 -143.386602 148.046136 31.317742 -134.182873 0.01076 -1.077091 0.33905 154.567195 -62.833885 178.952054 149.000935 25.134432 145.098038 143.517743 0.028083 138.567383 0.000247 -0.00021 0.000983 -33.174293 -48.867353 -168.847274 -39.782224 -41.365601 -170.967664 37.9998 -55.202248 -62.944548 0.017545 -0.000207 0.014438 6.669565 -5.214149 -103.824386 -69.374153 -23.785381 -45.23492 -70.029655 26.814738 -165.683615
-0.1553 69.6466 5.0115 5.275216 32.345947 -4.558637 -16.819459 11.611283 62.071103 -2.369611 -8.616708 -54.131832 0.235113 16.010957 45.850391 -18.179696 -15.651166 -85.496989 0.001671 0.0 0.002444 0.001671 0.0 0.002444 1.198095 -71.373677 -17.256723 16.592399 31.013486 66.840603 -0.483768 -6.951778 90.503545 -8.024714 39.492466 3.435766 2.573346 -2.555263 -0.339324 -121.673231 -10.575324 109.758437 -112.057625 32.038103 94.826904 -6.826151 21.652207 -1.263461 170.764256 -68.314447 135.835476 8.261741 -15.803468 -1.125356 -145.110254 -0.824617 -178.86892 8.3742 -17.682807 -11.545193 6.018691 18.078924 5.395536 -153.451511 32.276118 -147.638156 123.743951 58.968059 -127.439953 90.00701 -2.182302 -104.154729 160.74798 14.054386 77.367216 7.153444 -41.75022 9.123982 -8.769532 -8.763894 0.685259 -99.208089 -86.795283 -31.261954 160.710646 -34.216644 -122.710014 0.187459 23.679121 3.748269 12.242169 28.000453 -8.658892 161.901543 -0.926101 -142.881255 145.122007 0.990565 179.437955 -11.113675 62.785715 0.805207 148.042684 21.697942 144.307202 141.292508 -5.161106 136.844226 -179.991729 75.748603 -0.008447 158.700216 18.640171 -75.347377 -54.665961 -1.080984 89.571372 55.984906 -1.498084 -18.230592 -179.983712 75.749755 -0.011293 -166.683356 70.989133 118.946588 68.328576 -33.054302 74.936028 31.350133 60.671445 -162.392293
-0.5677 69.4187 5.9991 5.421271 32.987251 -3.847795 -13.012833 11.905627 -45.806894 6.889575 -3.403007 53.51267 -0.07255 32.418004 157.590877 -17.021855 37.246555 170.107118 -0.001068 0.0 -0.004106 0.000153 0.0 0.001668 -149.634486 23.308213 154.668371 -78.707135 -33.354113 -97.933367 -146.312678 -67.145139 -62.221305 -4.97369 30.679588 2.526119 -5.751428 5.566574 1.155075 5.118639 -4.964828 -0.192359 43.605491 -62.807461 3.192325 -173.507759 -39.035018 109.65235 -0.31971 0.930201 0.17813 19.928218 -46.301105 0.666471 -0.008823 -0.806058 -0.252027 -156.094827 -14.923477 173.621947 -136.47029 -10.556467 -133.801755 -17.897897 -34.116131 -20.059419 -3.631095 -31.541383 6.116846 -30.093211 -11.88733 62.655101 -161.444267 -68.777927 -17.336268 153.867016 25.790195 -132.396516 6.361648 6.138507 -1.308958 120.282827 -14.002661 -107.100679 150.721428 -15.985186 -120.921108 -169.624365 -56.226978 -106.994607 -170.134252 -68.793746 -135.344709 -2.052449 2.851524 -0.65278 145.035831 -4.224751 177.798466 -8.652114 -17.706094 11.535541 10.426662 -21.259193 9.875825 166.736932 72.238517 148.019711 -179.970678 75.749886 -0.021959 156.555409 15.956881 178.26225 13.674132 -62.756567 -71.152029 -9.92102 -53.756386 -110.682817 0.004097 -0.001395 0.00376 4.913332 -3.805261 114.616228 57.01847 -20.835376 -67.853661 -114.150778 -20.451589 -15.185016
-0.8955 69.3611 7.320799999999999 4.433327 34.388483 -3.569122 -12.469782 8.885432 -129.430177 2.564539 4.705545 136.224512 -17.20496 24.859446 -82.746575 34.968003 11.759227 43.094808 0.002641 0.0 0.000705 0.002641 0.0 0.000705 -0.153778 0.910968 0.203509 111.327955 -23.12287 124.002312 118.82569 -7.844839 8.235001 -178.997775 29.796017 149.236718 10.289745 -10.277309 -0.665827 -44.976606 30.980976 35.727211 -140.786212 1.344209 116.242539 -163.046414 -15.034171 119.10512 -157.683156 2.221172 141.669519 -2.390238 15.127598 3.144769 0.005434 1.213482 0.379338 10.813316 -9.561383 -1.218567 -49.022969 -49.224397 -47.755896 -81.121887 -53.74488 -81.608664 71.489252 -86.859974 93.417892 -123.361019 16.342213 133.294654 -7.254262 -2.460785 -107.093877 12.83291 -25.386244 6.698403 160.886021 1.39898 -89.031609 95.611117 6.554901 -40.407144 151.079792 -16.651244 -121.04308 -5.520844 11.213706 7.820401 0.644561 1.862667 -0.365453 -6.273177 -9.267944 1.007578 0.000531 -0.118181 0.038465 155.935467 -10.105446 -173.060439 9.793576 -20.256374 9.26903 139.48263 -9.181747 137.331166 0.001077 0.000664 0.000779 -38.155018 -51.595578 -143.900913 -55.62286 -23.604498 96.599695 -106.337493 -34.594674 27.09196 -179.999581 75.748978 -0.000267 -160.504186 71.516032 60.93254 68.41404 10.387494 62.567044 -36.920271 -9.427801 -115.052825
-1.1785999999999999 69.4445 8.4228 3.049768 34.669418 -4.128425 -11.427812 9.10321 -120.217405 4.047209 4.26052 126.743539 4.358162 22.469497 91.458913 -31.19458 6.248178 -128.537365 0.003102 -0.0 -0.002575 -0.002469 0.0 -0.001237 4.079644 -39.646067 -7.636742 -100.224786 12.098992 100.984173 38.34032 39.177187 -150.398032 168.164229 -10.406346 146.921088 41.048639 -35.828472 7.645647 -93.780843 36.508678 70.674116 -150.935327 -16.380596 120.994782 22.746821 -24.072689 -10.553234 -161.521433 -9.309465 143.625457 -152.456726 23.139212 137.343753 -0.000155 3.001457 0.943229 8.477621 17.321092 2.373772 7.067119 21.712326 6.284402 -120.742213 -38.312425 -119.002436 147.047876 30.70937 -151.788974 68.953405 1.328867 -70.728295 -4.970816 5.673576 139.918872 153.828496 23.140844 -133.646388 20.129156 17.879294 -6.169138 -8.335839 -7.022264 -6.070694 114.194183 30.642008 -96.617877 0.208976 12.012394 4.680121 -5.54662 -17.236433 2.439825 -5.359168 -6.6498 0.768654 -0.003408 2.054915 -0.645699 154.345428 13.279093 -170.027735 157.357091 57.342524 150.520951 64.797609 -53.202158 63.974888 -179.962133 75.749766 -0.031022 153.635284 16.986965 77.975929 65.507897 11.750318 21.059766 -146.996197 7.722327 103.62209 179.994364 75.750122 0.004185 -150.154561 71.786789 -34.885018 -30.305797 59.117181 -90.205436 -123.06978 27.477873 -157.559477
-1.3313 69.4736 9.3344 2.593045 34.932333 -3.969537 -10.860641 8.885894 -119.791108 4.249367 4.28258 126.366404 -16.95973 21.868513 -64.834133 34.766504 1.647797 28.404724 -0.000331 0.0 -0.001543 -0.000331 0.0 -0.001543 -157.234907 -16.683837 164.457195 -111.508784 -4.270952 -149.632254 159.251771 82.204214 79.838773 158.131041 -33.073229 140.553096 -1.102116 1.084575 0.180403 -134.35409 -34.957409 116.973715 -139.212948 3.804558 115.30681 151.165423 -63.989889 93.760418 -8.127309 20.286573 5.425228 67.441444 -76.598447 39.625509 -145.102661 -1.37712 -178.694433 -147.28785 -45.109158 -169.836913 19.016728 66.055169 13.077112 -5.436191 -15.852777 -6.644505 159.194767 -45.460324 -169.870714 67.402821 -46.133926 9.021097 155.44429 -27.647816 63.130045 8.297027 -53.609284 12.384311 16.539196 15.067192 -4.663854 -47.513139 -53.536428 5.760604 -8.833865 -15.494759 4.108584 133.291751 21.751866 -103.142576 -5.011732 -15.512264 2.268621 -1.749066 4.158512 -0.58688 145.066847 5.922454 -179.00773 40.761502 -75.847107 61.644178 1.746836 -4.367094 1.623537 151.251589 25.770637 146.628916 0.003469 0.000169 0.003978 -40.474592 -51.043328 158.911202 -41.561988 -60.673132 -119.846518 -147.824393 4.910988 105.37453 0.089261 -0.0009 0.072202 11.126978 -2.24911 -100.030718 -59.311221 -6.106095 161.697415 -101.927196 11.086516 -5.383182
-1.327 69.49109999999999 10.0969 3.087543 34.746328 -3.055426 -15.789517 10.787425 57.556008 -3.779907 -9.409746 -49.932051 4.559776 22.545101 91.469459 -31.978728 6.593539 -127.797214 0.001222 0.0 0.000198 0.001222 0.0 0.000198 4.274092 -49.808122 -9.732936 -4.920476 17.398225 75.428664 -177.317008 30.740218 56.085349 156.394878 -35.94161 139.237108 -154.673091 7.326713 87.618413 -82.515347 0.898292 34.739004 -146.226933 -7.82467 119.100392 -8.691959 31.291151 0.043724 -164.425984 -18.60003 144.674402 -14.70321 37.687648 11.89612 -145.122185 0.566731 -179.305961 8.156719 -18.429072 -11.671145 -142.357915 3.703174 -139.288237 -97.361746 -49.074652 -96.51999 57.439665 67.024613 -60.287903 98.078786 -8.917721 -135.813771 175.106896 8.851767 75.15429 12.581437 -36.523005 9.181777 169.600593 -7.282417 -89.931448 56.726591 -8.055414 -14.068837 -58.532462 -69.90611 -14.161498 161.720206 -23.892282 -114.377032 -48.485779 -76.654735 -21.445142 -20.894158 -48.147195 -1.384949 145.051372 -3.739925 177.950982 113.963169 -73.975553 136.0 -15.931309 55.734943 -12.325226 81.825941 -53.972533 80.509237 -0.00198 -0.000869 -0.00134 -42.283788 -51.387484 153.560689 -30.50622 -60.534433 -152.225712 -126.502528 14.901566 55.578679 179.999491 75.748998 0.000312 -145.323152 70.570465 -142.901369 -52.666811 -25.054671 42.099018 172.736684 51.730781 -85.863955
